<svg width="35" height="35" viewBox="0 0 35 35" fill="none" xmlns="http://www.w3.org/2000/svg">
<path d="M18.1201 33.1487L18.1045 33.1515L18.0039 33.2011L17.9756 33.2067L17.9558 33.2011L17.8552 33.1515C17.8401 33.1468 17.8288 33.1491 17.8212 33.1586L17.8155 33.1727L17.7914 33.7791L17.7985 33.8074L17.8127 33.8258L17.96 33.9307L17.9813 33.9363L17.9983 33.9307L18.1456 33.8258L18.1626 33.8032L18.1683 33.7791L18.1442 33.1742C18.1404 33.159 18.1324 33.1505 18.1201 33.1487ZM18.4955 32.9886L18.4771 32.9914L18.215 33.1232L18.2009 33.1373L18.1966 33.1529L18.2221 33.7621L18.2292 33.7791L18.2405 33.789L18.5253 33.9207C18.5432 33.9255 18.5569 33.9217 18.5664 33.9094L18.572 33.8896L18.5239 33.0197C18.5191 33.0027 18.5097 32.9924 18.4955 32.9886ZM17.4826 32.9914C17.4764 32.9876 17.4689 32.9864 17.4618 32.988C17.4547 32.9896 17.4484 32.9938 17.4444 32.9999L17.4359 33.0197L17.3877 33.8896C17.3886 33.9066 17.3967 33.9179 17.4118 33.9236L17.433 33.9207L17.7178 33.789L17.7319 33.7777L17.7376 33.7621L17.7617 33.1529L17.7574 33.1359L17.7433 33.1217L17.4826 32.9914Z" fill="#5842F4"/>
<path d="M30.03 17.2002V27.1169C30.03 27.8683 29.7315 28.589 29.2002 29.1203C28.6688 29.6517 27.9481 29.9502 27.1967 29.9502H7.36336C6.61192 29.9502 5.89125 29.6517 5.35989 29.1203C4.82854 28.589 4.53003 27.8683 4.53003 27.1169V17.2002H30.03ZM22.9467 4.4502C23.3224 4.4502 23.6828 4.59945 23.9484 4.86513C24.2141 5.1308 24.3634 5.49114 24.3634 5.86686V7.28353H27.1967C27.9481 7.28353 28.6688 7.58204 29.2002 8.11339C29.7315 8.64475 30.03 9.36542 30.03 10.1169V14.3669H4.53003V10.1169C4.53003 9.36542 4.82854 8.64475 5.35989 8.11339C5.89125 7.58204 6.61192 7.28353 7.36336 7.28353H10.1967V5.86686C10.1967 5.49114 10.346 5.1308 10.6116 4.86513C10.8773 4.59945 11.2376 4.4502 11.6134 4.4502C11.9891 4.4502 12.3494 4.59945 12.6151 4.86513C12.8808 5.1308 13.03 5.49114 13.03 5.86686V7.28353H21.53V5.86686C21.53 5.49114 21.6793 5.1308 21.945 4.86513C22.2106 4.59945 22.571 4.4502 22.9467 4.4502Z" fill="#5842F4"/>
</svg>
