<svg width="26" height="27" viewBox="0 0 26 27" fill="none" xmlns="http://www.w3.org/2000/svg">
<path d="M22.95 13.1999H9.60657M4.89669 13.1999H2.96997M4.89669 13.1999C4.89669 12.5755 5.14474 11.9766 5.58628 11.5351C6.02781 11.0936 6.62667 10.8455 7.25109 10.8455C7.87552 10.8455 8.47437 11.0936 8.9159 11.5351C9.35744 11.9766 9.60549 12.5755 9.60549 13.1999C9.60549 13.8243 9.35744 14.4232 8.9159 14.8647C8.47437 15.3063 7.87552 15.5543 7.25109 15.5543C6.62667 15.5543 6.02781 15.3063 5.58628 14.8647C5.14474 14.4232 4.89669 13.8243 4.89669 13.1999ZM22.95 20.3355H16.7421M16.7421 20.3355C16.7421 20.9601 16.4935 21.5596 16.0518 22.0012C15.6102 22.4429 15.0112 22.691 14.3867 22.691C13.7622 22.691 13.1634 22.4418 12.7218 22.0003C12.2803 21.5588 12.0323 20.9599 12.0323 20.3355M16.7421 20.3355C16.7421 19.7109 16.4935 19.1125 16.0518 18.6708C15.6102 18.2292 15.0112 17.9811 14.3867 17.9811C13.7622 17.9811 13.1634 18.2291 12.7218 18.6707C12.2803 19.1122 12.0323 19.7111 12.0323 20.3355M12.0323 20.3355H2.96997M22.95 6.06436H19.5966M14.8867 6.06436H2.96997M14.8867 6.06436C14.8867 5.43994 15.1347 4.84108 15.5763 4.39955C16.0178 3.95801 16.6167 3.70996 17.2411 3.70996C17.5503 3.70996 17.8564 3.77086 18.1421 3.88918C18.4277 4.0075 18.6873 4.18092 18.9059 4.39955C19.1245 4.61817 19.298 4.87772 19.4163 5.16337C19.5346 5.44902 19.5955 5.75518 19.5955 6.06436C19.5955 6.37355 19.5346 6.6797 19.4163 6.96535C19.298 7.251 19.1245 7.51055 18.9059 7.72917C18.6873 7.9478 18.4277 8.12122 18.1421 8.23954C17.8564 8.35786 17.5503 8.41876 17.2411 8.41876C16.6167 8.41876 16.0178 8.17071 15.5763 7.72917C15.1347 7.28764 14.8867 6.68879 14.8867 6.06436Z" stroke="white" stroke-width="1.62" stroke-miterlimit="10" stroke-linecap="round"/>
</svg>
