<svg width="198" height="32" viewBox="0 0 198 32" fill="none" xmlns="http://www.w3.org/2000/svg">
<path d="M19.7969 31H0.597656V2.99219H19.7969V8.59766H6.20312V14.2031H15.4023V19.8086H6.20312V25.3945H19.7969V31ZM42.8242 31H41.5352L39.4648 28.1289C38.957 28.5846 38.4167 29.0143 37.8438 29.418C37.2839 29.8086 36.6914 30.1536 36.0664 30.4531C35.4414 30.7396 34.7969 30.9674 34.1328 31.1367C33.4818 31.306 32.8177 31.3906 32.1406 31.3906C30.6693 31.3906 29.2826 31.1432 27.9805 30.6484C26.6914 30.1536 25.5586 29.4375 24.582 28.5C23.6185 27.5495 22.8568 26.3906 22.2969 25.0234C21.737 23.6562 21.457 22.1003 21.457 20.3555C21.457 18.7279 21.737 17.237 22.2969 15.8828C22.8568 14.5156 23.6185 13.3438 24.582 12.3672C25.5586 11.3906 26.6914 10.6354 27.9805 10.1016C29.2826 9.55469 30.6693 9.28125 32.1406 9.28125C32.8177 9.28125 33.4883 9.36589 34.1523 9.53516C34.8164 9.70443 35.4609 9.9388 36.0859 10.2383C36.7109 10.5378 37.3034 10.8893 37.8633 11.293C38.4362 11.6966 38.9701 12.1328 39.4648 12.6016L41.5352 10.1211H42.8242V31ZM37.4531 20.3555C37.4531 19.6263 37.3099 18.9232 37.0234 18.2461C36.75 17.556 36.3724 16.9505 35.8906 16.4297C35.4089 15.8958 34.8424 15.4727 34.1914 15.1602C33.5534 14.8346 32.8698 14.6719 32.1406 14.6719C31.4115 14.6719 30.7214 14.7956 30.0703 15.043C29.4323 15.2904 28.8724 15.6549 28.3906 16.1367C27.9219 16.6185 27.5508 17.2174 27.2773 17.9336C27.0039 18.6367 26.8672 19.444 26.8672 20.3555C26.8672 21.2669 27.0039 22.0807 27.2773 22.7969C27.5508 23.5 27.9219 24.0924 28.3906 24.5742C28.8724 25.056 29.4323 25.4206 30.0703 25.668C30.7214 25.9154 31.4115 26.0391 32.1406 26.0391C32.8698 26.0391 33.5534 25.8828 34.1914 25.5703C34.8424 25.2448 35.4089 24.8216 35.8906 24.3008C36.3724 23.7669 36.75 23.1615 37.0234 22.4844C37.3099 21.7943 37.4531 21.0846 37.4531 20.3555ZM57.3945 31C56.1055 31 54.8945 30.7591 53.7617 30.2773C52.6289 29.7826 51.6328 29.112 50.7734 28.2656C49.9271 27.4062 49.2565 26.4102 48.7617 25.2773C48.2799 24.1445 48.0391 22.9336 48.0391 21.6445V15.4336H45.4414V10.1211H48.0391V1.76172H53.3516V10.1211H61.4375V15.4336H53.3516V21.6445C53.3516 22.2044 53.4557 22.7318 53.6641 23.2266C53.8724 23.7083 54.1589 24.1315 54.5234 24.4961C54.888 24.8607 55.3177 25.1536 55.8125 25.375C56.3073 25.5833 56.8346 25.6875 57.3945 25.6875H61.4375V31H57.3945ZM92.8047 22.9922C92.8047 24.151 92.5833 25.2448 92.1406 26.2734C91.7109 27.2891 91.112 28.181 90.3438 28.9492C89.5885 29.7044 88.6966 30.3034 87.668 30.7461C86.6523 31.1758 85.5651 31.3906 84.4062 31.3906C83.3646 31.3906 82.362 31.2083 81.3984 30.8438C80.4479 30.4792 79.5885 29.9453 78.8203 29.2422C78.0521 29.9453 77.1862 30.4792 76.2227 30.8438C75.2591 31.2083 74.2565 31.3906 73.2148 31.3906C72.056 31.3906 70.9622 31.1758 69.9336 30.7461C68.918 30.3034 68.026 29.7044 67.2578 28.9492C66.5026 28.181 65.9036 27.2891 65.4609 26.2734C65.0312 25.2448 64.8164 24.151 64.8164 22.9922V2.99219H70.4219V22.9922C70.4219 23.3828 70.4935 23.7539 70.6367 24.1055C70.7799 24.444 70.9753 24.7435 71.2227 25.0039C71.4831 25.2513 71.7826 25.4466 72.1211 25.5898C72.4596 25.7331 72.8242 25.8047 73.2148 25.8047C73.6055 25.8047 73.9701 25.7331 74.3086 25.5898C74.6471 25.4466 74.9401 25.2513 75.1875 25.0039C75.4479 24.7435 75.6497 24.444 75.793 24.1055C75.9362 23.7539 76.0078 23.3828 76.0078 22.9922V2.99219H81.6133V22.9922C81.6133 23.3828 81.6849 23.7539 81.8281 24.1055C81.9714 24.444 82.1667 24.7435 82.4141 25.0039C82.6745 25.2513 82.974 25.4466 83.3125 25.5898C83.651 25.7331 84.0156 25.8047 84.4062 25.8047C84.7969 25.8047 85.1615 25.7331 85.5 25.5898C85.8385 25.4466 86.1315 25.2513 86.3789 25.0039C86.6393 24.7435 86.8411 24.444 86.9844 24.1055C87.1406 23.7539 87.2188 23.3828 87.2188 22.9922V2.99219H92.8047V22.9922ZM103.547 4.39844C103.547 4.89323 103.449 5.35547 103.254 5.78516C103.072 6.21484 102.818 6.59245 102.492 6.91797C102.167 7.23047 101.783 7.48438 101.34 7.67969C100.91 7.86198 100.448 7.95312 99.9531 7.95312C99.4583 7.95312 98.9896 7.86198 98.5469 7.67969C98.1172 7.48438 97.7396 7.23047 97.4141 6.91797C97.1016 6.59245 96.8477 6.21484 96.6523 5.78516C96.4701 5.35547 96.3789 4.89323 96.3789 4.39844C96.3789 3.91667 96.4701 3.46094 96.6523 3.03125C96.8477 2.58854 97.1016 2.21094 97.4141 1.89844C97.7396 1.57292 98.1172 1.31901 98.5469 1.13672C98.9896 0.941406 99.4583 0.84375 99.9531 0.84375C100.448 0.84375 100.91 0.941406 101.34 1.13672C101.783 1.31901 102.167 1.57292 102.492 1.89844C102.818 2.21094 103.072 2.58854 103.254 3.03125C103.449 3.46094 103.547 3.91667 103.547 4.39844ZM102.629 31H97.2578V10.082H102.629V31ZM117.199 31C115.91 31 114.699 30.7591 113.566 30.2773C112.434 29.7826 111.438 29.112 110.578 28.2656C109.732 27.4062 109.061 26.4102 108.566 25.2773C108.085 24.1445 107.844 22.9336 107.844 21.6445V15.4336H105.246V10.1211H107.844V1.76172H113.156V10.1211H121.242V15.4336H113.156V21.6445C113.156 22.2044 113.26 22.7318 113.469 23.2266C113.677 23.7083 113.964 24.1315 114.328 24.4961C114.693 24.8607 115.122 25.1536 115.617 25.375C116.112 25.5833 116.639 25.6875 117.199 25.6875H121.242V31H117.199ZM129.582 31H124.25V1.76172H129.582V11C130.22 10.5182 130.878 10.1797 131.555 9.98438C132.232 9.77604 132.922 9.67188 133.625 9.67188C134.914 9.67188 136.125 9.91927 137.258 10.4141C138.391 10.8958 139.374 11.5664 140.207 12.4258C141.053 13.2721 141.717 14.2682 142.199 15.4141C142.694 16.5469 142.941 17.7578 142.941 19.0469V31H137.57V19.0469H137.609C137.609 18.5 137.505 17.9857 137.297 17.5039C137.089 17.0091 136.802 16.5794 136.438 16.2148C136.073 15.8503 135.65 15.5638 135.168 15.3555C134.686 15.1471 134.172 15.043 133.625 15.043C133.065 15.043 132.538 15.1471 132.043 15.3555C131.548 15.5638 131.118 15.8503 130.754 16.2148C130.389 16.5794 130.103 17.0091 129.895 17.5039C129.686 17.9857 129.582 18.5 129.582 19.0469V31ZM175.109 31H169.523V11C169.523 10.6094 169.445 10.2448 169.289 9.90625C169.146 9.56771 168.944 9.27474 168.684 9.02734C168.436 8.76693 168.143 8.5651 167.805 8.42188C167.466 8.27865 167.102 8.20703 166.711 8.20703C166.32 8.20703 165.956 8.27865 165.617 8.42188C165.279 8.5651 164.979 8.76693 164.719 9.02734C164.471 9.27474 164.276 9.56771 164.133 9.90625C163.99 10.2448 163.918 10.6094 163.918 11V31H158.312V11C158.312 10.6094 158.241 10.2448 158.098 9.90625C157.954 9.56771 157.753 9.27474 157.492 9.02734C157.245 8.76693 156.952 8.5651 156.613 8.42188C156.275 8.27865 155.91 8.20703 155.52 8.20703C155.129 8.20703 154.764 8.27865 154.426 8.42188C154.087 8.5651 153.788 8.76693 153.527 9.02734C153.28 9.27474 153.085 9.56771 152.941 9.90625C152.798 10.2448 152.727 10.6094 152.727 11V31H147.121V11C147.121 9.84115 147.336 8.75391 147.766 7.73828C148.208 6.70964 148.807 5.81771 149.562 5.0625C150.331 4.29427 151.223 3.69531 152.238 3.26562C153.267 2.82292 154.361 2.60156 155.52 2.60156C156.561 2.60156 157.564 2.79036 158.527 3.16797C159.491 3.53255 160.357 4.06641 161.125 4.76953C161.893 4.06641 162.753 3.53255 163.703 3.16797C164.667 2.79036 165.669 2.60156 166.711 2.60156C167.87 2.60156 168.957 2.82292 169.973 3.26562C171.001 3.69531 171.893 4.29427 172.648 5.0625C173.417 5.81771 174.016 6.70964 174.445 7.73828C174.888 8.75391 175.109 9.84115 175.109 11V31ZM187.648 25.8828C187.857 25.9479 188.065 25.9935 188.273 26.0195C188.482 26.0326 188.69 26.0391 188.898 26.0391C189.419 26.0391 189.921 25.9674 190.402 25.8242C190.884 25.681 191.333 25.4792 191.75 25.2188C192.18 24.9453 192.557 24.6198 192.883 24.2422C193.221 23.8516 193.495 23.4219 193.703 22.9531L197.609 26.8789C197.115 27.582 196.542 28.2135 195.891 28.7734C195.253 29.3333 194.556 29.8086 193.801 30.1992C193.059 30.5898 192.271 30.8828 191.438 31.0781C190.617 31.2865 189.771 31.3906 188.898 31.3906C187.427 31.3906 186.04 31.1172 184.738 30.5703C183.449 30.0234 182.316 29.2617 181.34 28.2852C180.376 27.3086 179.615 26.1497 179.055 24.8086C178.495 23.4544 178.215 21.9701 178.215 20.3555C178.215 18.7018 178.495 17.1914 179.055 15.8242C179.615 14.457 180.376 13.2917 181.34 12.3281C182.316 11.3646 183.449 10.6159 184.738 10.082C186.04 9.54818 187.427 9.28125 188.898 9.28125C189.771 9.28125 190.624 9.38542 191.457 9.59375C192.29 9.80208 193.078 10.1016 193.82 10.4922C194.576 10.8828 195.279 11.3646 195.93 11.9375C196.581 12.4974 197.154 13.1289 197.648 13.832L187.648 25.8828ZM190.383 14.8867C190.135 14.7956 189.888 14.737 189.641 14.7109C189.406 14.6849 189.159 14.6719 188.898 14.6719C188.169 14.6719 187.479 14.8086 186.828 15.082C186.19 15.3424 185.63 15.7201 185.148 16.2148C184.68 16.7096 184.309 17.3086 184.035 18.0117C183.762 18.7018 183.625 19.4831 183.625 20.3555C183.625 20.5508 183.632 20.7721 183.645 21.0195C183.671 21.2669 183.703 21.5208 183.742 21.7812C183.794 22.0286 183.853 22.2695 183.918 22.5039C183.983 22.7383 184.068 22.9466 184.172 23.1289L190.383 14.8867Z" fill="#5842F4"/>
</svg>
