<svg width="35" height="35" viewBox="0 0 35 35" fill="none" xmlns="http://www.w3.org/2000/svg">
<path d="M22.9467 15.7832C25.2983 15.7832 27.1825 13.8849 27.1825 11.5332C27.1825 9.18154 25.2983 7.2832 22.9467 7.2832C20.595 7.2832 18.6967 9.18154 18.6967 11.5332C18.6967 13.8849 20.595 15.7832 22.9467 15.7832ZM11.6133 15.7832C13.965 15.7832 15.8492 13.8849 15.8492 11.5332C15.8492 9.18154 13.965 7.2832 11.6133 7.2832C9.26166 7.2832 7.36332 9.18154 7.36332 11.5332C7.36332 13.8849 9.26166 15.7832 11.6133 15.7832ZM11.6133 18.6165C8.31249 18.6165 1.69666 20.274 1.69666 23.5749V27.1165H21.53V23.5749C21.53 20.274 14.9142 18.6165 11.6133 18.6165ZM22.9467 18.6165C22.5358 18.6165 22.0683 18.6449 21.5725 18.6874C23.2158 19.8774 24.3633 21.4782 24.3633 23.5749V27.1165H32.8633V23.5749C32.8633 20.274 26.2475 18.6165 22.9467 18.6165Z" fill="#5842F4"/>
</svg>
