<svg width="35" height="36" viewBox="0 0 35 36" fill="none" xmlns="http://www.w3.org/2000/svg">
<path d="M22.6 21.0802H21.4624L21.0592 20.6914C22.5192 18.998 23.3216 16.8361 23.32 14.6002C23.32 12.749 22.771 10.9393 21.7425 9.4001C20.714 7.86086 19.2522 6.66116 17.5419 5.95273C15.8316 5.24429 13.9496 5.05893 12.1339 5.42009C10.3183 5.78125 8.65048 6.6727 7.34146 7.98172C6.03244 9.29074 5.14099 10.9585 4.77983 12.7742C4.41867 14.5899 4.60403 16.4718 5.31247 18.1822C6.0209 19.8925 7.2206 21.3543 8.75984 22.3828C10.2991 23.4113 12.1087 23.9602 13.96 23.9602C16.2784 23.9602 18.4096 23.1106 20.0512 21.6994L20.44 22.1026V23.2402L27.64 30.4258L29.7856 28.2802L22.6 21.0802ZM13.96 21.0802C10.3744 21.0802 7.47998 18.1858 7.47998 14.6002C7.47998 11.0146 10.3744 8.12024 13.96 8.12024C17.5456 8.12024 20.44 11.0146 20.44 14.6002C20.44 18.1858 17.5456 21.0802 13.96 21.0802Z" fill="#5842F4"/>
</svg>
